<svg width="20" height="21" viewBox="0 0 20 21" fill="none" xmlns="http://www.w3.org/2000/svg">
<g clip-path="url(#clip0_55_246)">
<path d="M1 4.0752C1 2.9752 1.9 2.0752 3 2.0752H17C17.5304 2.0752 18.0391 2.28591 18.4142 2.66098C18.7893 3.03605 19 3.54476 19 4.0752V18.0752C19 18.6056 18.7893 19.1143 18.4142 19.4894C18.0391 19.8645 17.5304 20.0752 17 20.0752H3C2.46957 20.0752 1.96086 19.8645 1.58579 19.4894C1.21071 19.1143 1 18.6056 1 18.0752V4.0752ZM3 6.0752V18.0752H17V6.0752H3ZM5 0.0751953H7V2.0752H5V0.0751953ZM13 0.0751953H15V2.0752H13V0.0751953ZM5 9.0752H7V11.0752H5V9.0752ZM5 13.0752H7V15.0752H5V13.0752ZM9 9.0752H11V11.0752H9V9.0752ZM9 13.0752H11V15.0752H9V13.0752ZM13 9.0752H15V11.0752H13V9.0752ZM13 13.0752H15V15.0752H13V13.0752Z" fill="#0499DD"/>
</g>
<defs>
<clipPath id="clip0_55_246">
<rect width="20" height="20" fill="white" transform="translate(0 0.0751953)"/>
</clipPath>
</defs>
</svg>
